<svg width="30" height="24" viewBox="0 0 30 24" fill="none" xmlns="http://www.w3.org/2000/svg">
<path d="M29.5231 2.84684C28.4374 3.32792 27.2711 3.65297 26.045 3.79989C27.3101 3.0429 28.2566 1.85148 28.7079 0.447947C27.5193 1.15395 26.2184 1.6509 24.8618 1.91719C23.9496 0.943152 22.7413 0.297546 21.4245 0.0806033C20.1077 -0.13634 18.7562 0.0875171 17.5797 0.71742C16.4032 1.34732 15.4675 2.34803 14.918 3.56417C14.3685 4.78031 14.2359 6.14385 14.5408 7.44309C12.1324 7.32216 9.7763 6.69618 7.62548 5.60576C5.47467 4.51535 3.57717 2.98487 2.05612 1.11366C1.53604 2.0108 1.23699 3.05097 1.23699 4.15875C1.23641 5.15601 1.48199 6.13799 1.95195 7.01757C2.42191 7.89715 3.1017 8.64713 3.93103 9.20098C2.96923 9.17037 2.02865 8.91049 1.18758 8.44295V8.52096C1.18748 9.91965 1.6713 11.2753 2.55694 12.3579C3.44258 13.4405 4.67549 14.1833 6.04647 14.4603C5.15425 14.7018 4.21882 14.7374 3.31083 14.5644C3.69764 15.7678 4.45111 16.8203 5.46576 17.5742C6.48041 18.3282 7.70544 18.7461 8.96935 18.7692C6.82378 20.4535 4.17402 21.3672 1.44632 21.3632C0.963141 21.3633 0.480366 21.3351 0.000488281 21.2786C2.76926 23.0589 5.99231 24.0037 9.284 24C20.4268 24 26.5183 14.7711 26.5183 6.76698C26.5183 6.50694 26.5118 6.24429 26.5001 5.98425C27.685 5.12738 28.7078 4.0663 29.5205 2.85074L29.5231 2.84684Z" fill="#2BB7E2"/>
</svg>
